<svg width="32" height="32" viewBox="0 0 32 32" fill="none" xmlns="http://www.w3.org/2000/svg">
<rect width="32" height="32" fill="#18181B"/>
<path d="M21.0785 6.4C21.8812 6.4 22.2825 6.764 22.2825 7.492V8.584C22.2825 9.312 21.8812 9.676 21.0785 9.676H20.5745V20.456C20.5745 22.2107 20.0612 23.62 19.0345 24.684C18.0078 25.748 16.6358 26.28 14.9185 26.28C13.3318 26.28 12.0532 25.888 11.0825 25.104C10.1118 24.32 9.6265 23.284 9.6265 21.996C9.6265 21.2307 9.84117 20.6147 10.2705 20.148C10.7185 19.6813 11.2972 19.448 12.0065 19.448C12.7158 19.448 13.2852 19.644 13.7145 20.036C14.1438 20.4093 14.3585 20.9227 14.3585 21.576C14.3585 21.968 14.2652 22.3507 14.0785 22.724C14.2838 22.9107 14.5918 23.004 15.0025 23.004C15.5252 23.004 15.9265 22.808 16.2065 22.416C16.5052 22.024 16.6545 21.4733 16.6545 20.764V9.676H14.9745C14.1718 9.676 13.7705 9.312 13.7705 8.584V7.492C13.7705 6.764 14.1718 6.4 14.9745 6.4H21.0785Z" fill="#60A5FA"/>
</svg>
